<svg version="1.0" xmlns="http://www.w3.org/2000/svg"
 width="152.000000pt" height="141.000000pt" viewBox="0 0 152.000000 141.000000"
 preserveAspectRatio="xMidYMid meet">
<metadata>
Created by potrace 1.10, written by Peter Selinger 2001-2011
</metadata>
<g transform="translate(0.000000,141.000000) scale(0.100000,-0.100000)"
fill="#000000" stroke="none">
<path d="M750 1330 c0 -33 4 -60 10 -60 6 0 10 27 10 60 0 33 -4 60 -10 60 -6
0 -10 -27 -10 -60z"/>
<path d="M824 1321 c-26 -49 -29 -59 -19 -63 10 -5 65 101 56 107 -5 3 -22
-17 -37 -44z"/>
<path d="M650 1348 c0 -20 44 -91 58 -96 8 -2 2 18 -15 51 -27 54 -43 71 -43
45z"/>
<path d="M367 1212 c-107 -189 -149 -331 -128 -434 11 -52 22 -73 76 -147 35
-47 32 -88 -15 -226 -48 -137 -94 -233 -117 -242 -9 -4 -48 -1 -86 5 -76 13
-87 11 -67 -14 45 -53 314 -141 380 -124 l25 7 -34 19 c-89 50 -126 80 -129
103 -8 57 92 347 136 394 14 15 44 32 66 38 142 38 219 143 260 352 l21 107
22 -111 c37 -197 115 -307 241 -343 60 -17 89 -39 115 -91 26 -53 95 -260 102
-306 8 -56 -6 -75 -89 -121 -32 -18 -58 -37 -57 -43 8 -41 342 61 391 119 20
25 9 27 -69 14 -87 -15 -96 -11 -133 63 -39 76 -110 293 -110 334 0 25 12 51
45 95 94 124 86 239 -33 475 -38 77 -76 148 -83 157 -12 15 -26 13 -178 -38
l-164 -54 -155 52 c-85 28 -160 53 -166 55 -6 2 -36 -40 -67 -95z m231 21
l145 -47 -7 -91 c-7 -111 -37 -246 -67 -311 -46 -97 -139 -164 -225 -164 -42
1 -106 33 -137 69 -28 33 -57 116 -57 161 0 14 7 52 15 84 25 95 153 346 177
346 6 0 76 -21 156 -47z m536 -53 c110 -203 136 -289 116 -385 -38 -185 -232
-233 -360 -88 -48 55 -72 118 -100 258 -27 140 -30 216 -10 224 140 49 269 89
284 88 12 -1 35 -33 70 -97z m-886 -1060 c10 -16 10 -20 -2 -20 -25 0 -46 12
-46 26 0 21 33 17 48 -6z m1058 9 c8 -13 -13 -29 -39 -29 -15 0 -16 3 -7 20
12 22 35 26 46 9z"/>
<path d="M297 952 c-40 -136 -1 -255 96 -291 71 -27 163 10 214 86 75 112 65
135 -78 161 -97 19 -181 56 -193 87 -10 28 -21 16 -39 -43z m85 -43 c23 -12
80 -29 127 -38 76 -15 86 -20 89 -40 8 -51 -88 -141 -149 -141 -40 0 -90 32
-109 71 -22 42 -29 169 -10 169 6 0 30 -10 52 -21z"/>
<path d="M1160 985 c-35 -37 -96 -63 -180 -76 -130 -20 -150 -41 -110 -119 65
-127 176 -171 275 -110 73 45 100 177 58 283 l-19 48 -24 -26z m18 -129 c2
-54 -1 -74 -18 -100 -21 -36 -73 -66 -110 -66 -56 0 -150 87 -150 139 0 21 30
33 120 46 25 3 65 17 90 30 25 13 50 23 55 21 6 -1 11 -33 13 -70z"/>
<path d="M85 1089 c-4 -5 -5 -11 -4 -13 2 -1 32 -24 67 -50 57 -44 85 -54 68
-27 -16 25 -125 101 -131 90z"/>
<path d="M1353 1052 c-34 -26 -63 -53 -63 -59 0 -19 6 -16 61 27 28 22 58 44
67 49 12 7 14 13 7 20 -7 7 -30 -5 -72 -37z"/>
<path d="M15 962 c-13 -14 1 -20 76 -31 76 -12 101 -10 86 5 -9 9 -156 32
-162 26z"/>
<path d="M1412 955 c-71 -11 -91 -19 -80 -31 8 -8 168 18 168 27 0 15 -15 15
-88 4z"/>
<path d="M101 856 c-36 -12 -67 -28 -69 -34 -5 -17 4 -15 83 11 38 13 71 29
73 35 5 17 -13 14 -87 -12z"/>
<path d="M1322 868 c2 -6 35 -22 73 -35 79 -26 88 -28 83 -11 -2 6 -35 22 -73
35 -79 26 -88 28 -83 11z"/>
</g>
</svg>
