<?xml version="1.0" standalone="no"?>
<!DOCTYPE svg PUBLIC "-//W3C//DTD SVG 20010904//EN"
 "http://www.w3.org/TR/2001/REC-SVG-20010904/DTD/svg10.dtd">
<svg version="1.0" xmlns="http://www.w3.org/2000/svg"
 width="300.000000pt" height="300.000000pt" viewBox="0 0 300.000000 300.000000"
 preserveAspectRatio="xMidYMid meet">
<metadata>
Created by potrace 1.10, written by Peter Selinger 2001-2011
</metadata>
<g transform="translate(0.000000,300.000000) scale(0.100000,-0.100000)"
fill="#000000" stroke="none">
<path d="M1280 2983 c-335 -51 -623 -202 -865 -454 -237 -247 -387 -575 -401
-879 -4 -97 -3 -102 10 -70 7 20 19 69 26 110 71 440 291 790 646 1026 166
111 335 176 577 224 181 36 212 50 107 48 -41 0 -86 -2 -100 -5z"/>
<path d="M1576 2976 c17 -8 73 -22 125 -31 124 -21 258 -58 350 -95 471 -195
798 -604 889 -1112 12 -65 28 -135 36 -155 14 -36 14 -33 10 67 -10 202 -95
459 -214 644 -101 157 -285 349 -421 440 -228 152 -477 241 -701 251 -97 5
-103 4 -74 -9z"/>
<path d="M1370 2424 c-175 -46 -318 -178 -382 -351 -32 -86 -31 -264 1 -348
71 -182 223 -316 402 -355 77 -17 209 -8 284 19 257 92 411 369 350 630 -69
292 -373 480 -655 405z m261 -42 c210 -55 369 -262 369 -482 0 -270 -230 -500
-500 -500 -270 0 -500 230 -500 500 0 225 164 433 383 486 73 17 171 16 248
-4z"/>
<path d="M14 1350 c23 -479 357 -961 833 -1199 157 -78 345 -129 503 -136 97
-5 103 -4 75 9 -16 9 -38 15 -47 16 -43 1 -265 52 -347 79 -303 102 -580 318
-755 588 -108 168 -182 358 -221 572 -33 180 -47 204 -41 71z"/>
<path d="M2971 1418 c-6 -18 -17 -76 -26 -128 -93 -551 -454 -988 -966 -1168
-77 -27 -312 -81 -357 -82 -9 -1 -30 -7 -47 -16 -28 -13 -22 -14 75 -9 322 14
666 179 921 442 198 203 318 419 385 688 23 92 45 305 31 305 -3 0 -10 -15
-16 -32z"/>
<path d="M1145 1224 c-90 -19 -234 -88 -307 -148 -32 -26 -81 -75 -108 -109
-57 -70 -128 -203 -137 -259 -5 -34 -1 -41 48 -94 110 -117 302 -235 474 -293
242 -81 528 -81 770 0 174 58 362 175 474 293 49 53 53 60 48 94 -9 56 -80
189 -137 259 -71 87 -150 149 -255 199 -139 66 -198 74 -522 73 -202 0 -297
-5 -348 -15z m681 -35 c238 -43 455 -232 539 -468 l14 -40 -61 -56 c-162 -151
-361 -254 -578 -301 -118 -26 -362 -26 -480 0 -217 47 -416 150 -578 301 l-61
56 14 40 c47 133 162 283 274 358 73 48 166 89 244 106 78 17 585 20 673 4z"/>
</g>
</svg>
