<svg version="1.0" xmlns="http://www.w3.org/2000/svg"
 width="300.000000pt" height="300.000000pt" viewBox="0 0 300.000000 300.000000"
 preserveAspectRatio="xMidYMid meet">
<metadata>
Created by potrace 1.10, written by Peter Selinger 2001-2011
</metadata>
<g transform="translate(0.000000,300.000000) scale(0.100000,-0.100000)"
fill="#000000" stroke="none">
<path d="M1460 2990 c-19 -3 -46 -12 -60 -19 -40 -21 -1339 -1321 -1367 -1369
-19 -32 -25 -56 -25 -101 0 -66 17 -107 62 -144 43 -36 89 -47 207 -47 l103 0
2 -598 3 -599 28 -36 c33 -44 78 -69 115 -65 26 3 25 4 -21 36 -88 61 -81 11
-87 673 -5 546 -6 588 -23 607 -15 17 -34 20 -136 24 -138 5 -163 16 -215 95
l-34 51 38 59 c24 37 267 287 691 710 582 581 723 713 760 713 28 0 123 -82
315 -272 130 -128 219 -208 231 -208 33 0 50 31 55 101 7 80 30 124 80 150 31
16 59 19 160 19 140 0 177 -12 215 -69 23 -34 23 -37 23 -366 0 -183 3 -348 7
-366 5 -26 43 -72 173 -204 152 -155 220 -237 220 -265 0 -16 -45 -82 -73
-108 -33 -31 -82 -41 -193 -42 -142 0 -128 65 -134 -629 -6 -662 1 -612 -87
-673 -46 -32 -47 -33 -21 -36 37 -4 82 21 115 65 l28 36 3 599 2 598 103 0
c118 0 164 11 207 47 45 37 62 78 62 144 0 83 -23 117 -211 304 l-161 160 0
355 c0 398 0 395 -73 454 -38 31 -40 31 -175 34 -168 4 -193 0 -242 -44 -52
-47 -74 -106 -68 -184 2 -33 4 -60 4 -60 -1 0 -100 98 -221 219 -121 120 -233
225 -250 233 -39 19 -91 26 -135 18z"/>
<path d="M1257 1156 c-63 -17 -116 -61 -147 -122 l-25 -48 -3 -461 c-2 -253 0
-475 3 -492 3 -19 12 -33 20 -33 12 0 15 77 17 493 l3 492 27 45 c16 28 43 55
70 70 42 25 46 25 278 25 l235 0 45 -27 c28 -16 55 -43 70 -70 l25 -43 3 -492
c2 -416 5 -493 17 -493 8 0 17 14 20 33 3 17 4 239 3 492 -3 343 -7 467 -16
489 -23 52 -71 104 -120 128 -44 22 -60 23 -262 25 -154 2 -229 -1 -263 -11z"/>
</g>
</svg>
