<?xml version="1.0" standalone="no"?>
<!DOCTYPE svg PUBLIC "-//W3C//DTD SVG 20010904//EN"
 "http://www.w3.org/TR/2001/REC-SVG-20010904/DTD/svg10.dtd">
<svg version="1.0" xmlns="http://www.w3.org/2000/svg"
 width="225.000000pt" height="225.000000pt" viewBox="0 0 225.000000 225.000000"
 preserveAspectRatio="xMidYMid meet">
<metadata>
Created by potrace 1.10, written by Peter Selinger 2001-2011
</metadata>
<g transform="translate(0.000000,225.000000) scale(0.100000,-0.100000)"
fill="#000000" stroke="none">
<path d="M1065 2032 c-80 -39 -125 -112 -125 -204 1 -165 164 -265 315 -194
59 27 77 46 104 106 43 95 10 215 -77 275 -56 38 -155 46 -217 17z m168 -36
c69 -28 114 -114 103 -194 -19 -140 -197 -201 -299 -104 -42 40 -57 75 -57
135 0 128 133 214 253 163z"/>
<path d="M488 1596 c-173 -46 -221 -270 -83 -384 92 -75 210 -68 296 18 79 79
89 184 26 277 -52 77 -149 113 -239 89z m161 -64 c40 -29 69 -79 77 -128 5
-36 2 -54 -20 -97 -44 -91 -131 -127 -221 -93 -171 66 -154 312 25 344 54 10
104 0 139 -26z"/>
<path d="M1690 1601 c-152 -31 -226 -199 -146 -335 35 -59 97 -96 173 -103 50
-4 65 -1 113 24 75 40 112 94 118 172 5 71 -10 121 -51 167 -52 60 -133 89
-207 75z m148 -71 c90 -67 97 -212 14 -282 -67 -56 -151 -61 -223 -14 -108 72
-103 238 11 306 50 30 151 25 198 -10z"/>
<path d="M822 1523 c-17 -3 -22 -9 -17 -21 32 -78 31 -172 -3 -238 -19 -37
-72 -92 -118 -121 -16 -11 -11 -12 33 -7 61 7 165 -9 227 -36 64 -27 130 -91
157 -153 18 -41 23 -71 23 -144 1 -67 4 -93 14 -93 9 0 12 23 12 83 0 108 20
172 70 230 72 82 217 127 360 113 l65 -7 -48 30 c-57 37 -102 104 -118 177
-10 46 -10 63 4 112 10 37 12 60 6 67 -10 10 -621 18 -667 8z m618 -133 c4
-78 10 -104 33 -148 15 -29 25 -56 23 -61 -3 -4 -21 -8 -41 -9 -116 -4 -245
-80 -303 -178 -12 -18 -13 -18 -32 6 -79 97 -166 152 -259 166 -25 4 -49 8
-53 11 -4 2 7 32 24 66 29 54 33 72 34 147 1 47 2 88 3 93 1 4 128 6 284 5
l282 -3 5 -95z"/>
<path d="M156 1055 c-89 -36 -131 -84 -146 -167 -10 -50 5 -48 31 5 28 55 64
94 114 120 38 21 55 22 350 25 338 3 367 0 436 -50 75 -54 79 -71 79 -415 l0
-303 -25 -16 c-23 -15 -27 -15 -50 0 l-25 16 0 261 0 261 -29 29 c-36 35 -51
36 -88 5 l-28 -24 -5 -249 -5 -248 -235 0 -235 0 -5 246 c-5 225 -7 249 -24
268 -24 27 -66 27 -94 1 -22 -20 -22 -26 -22 -278 0 -217 -2 -261 -16 -280
-21 -31 -57 -28 -91 8 -35 37 -45 38 -37 3 15 -69 97 -95 151 -49 l28 24 3
281 3 281 29 0 30 0 0 -275 0 -275 283 0 282 0 -3 275 -3 275 36 0 35 0 0
-276 0 -276 29 -29 c37 -37 79 -38 120 -3 l31 26 0 316 c0 314 0 317 -24 369
-16 34 -39 63 -67 83 -77 56 -111 60 -448 60 -300 0 -307 -1 -365 -25z"/>
<path d="M1352 1061 c-62 -21 -117 -70 -143 -126 -17 -36 -19 -70 -19 -363 l0
-323 25 -24 c34 -35 96 -35 130 0 l25 24 0 281 0 280 36 0 36 0 -7 -275 -7
-275 286 0 286 0 0 275 0 275 30 0 30 0 0 -265 c0 -282 4 -310 49 -335 25 -13
67 -13 93 1 20 11 54 77 44 86 -3 3 -21 -8 -41 -26 -40 -35 -52 -37 -81 -17
-18 13 -19 32 -24 283 -3 147 -9 274 -13 281 -25 39 -93 32 -116 -12 -7 -13
-12 -109 -14 -261 l-2 -240 -229 -3 c-147 -1 -233 1 -240 8 -6 6 -12 107 -14
253 -5 268 -7 277 -68 277 -23 0 -38 -7 -53 -26 -20 -25 -21 -39 -21 -285 0
-221 -2 -260 -16 -273 -20 -20 -48 -20 -68 0 -14 13 -16 57 -16 325 0 289 1
312 20 349 22 43 54 69 118 93 36 15 86 17 340 17 163 0 313 -5 332 -10 70
-19 126 -64 153 -122 14 -30 33 -60 41 -67 13 -11 14 -8 9 26 -13 90 -71 156
-167 192 -53 20 -75 21 -364 21 -271 -1 -313 -3 -360 -19z"/>
</g>
</svg>
