<?xml version="1.0" standalone="no"?>
<!DOCTYPE svg PUBLIC "-//W3C//DTD SVG 20010904//EN"
 "http://www.w3.org/TR/2001/REC-SVG-20010904/DTD/svg10.dtd">
<svg version="1.0" xmlns="http://www.w3.org/2000/svg"
 width="300.000000pt" height="300.000000pt" viewBox="0 0 300.000000 300.000000"
 preserveAspectRatio="xMidYMid meet">
<metadata>
Created by potrace 1.10, written by Peter Selinger 2001-2011
</metadata>
<g transform="translate(0.000000,300.000000) scale(0.100000,-0.100000)"
fill="#000000" stroke="none">
<path d="M736 2955 c-123 -43 -180 -149 -175 -320 l2 -76 -129 -2 c-111 -2
-135 -6 -170 -24 -51 -27 -90 -72 -104 -121 -8 -26 -10 -371 -8 -1124 l3
-1086 30 -44 c17 -23 49 -53 70 -65 l40 -23 1197 0 c737 0 1206 4 1222 10 14
5 43 26 66 46 74 67 71 7 68 1210 -3 1197 3 1094 -77 1167 -53 47 -72 52 -218
52 l-123 0 0 99 c0 133 -12 169 -80 237 -70 70 -110 82 -251 77 -119 -4 -155
-17 -218 -80 -55 -56 -71 -109 -71 -232 l0 -101 -311 2 -311 2 -2 108 c-2 99
-4 113 -31 163 -33 60 -96 114 -153 130 -54 15 -220 12 -266 -5z m248 -36 c24
-6 60 -24 80 -41 59 -48 70 -79 76 -205 8 -169 -18 -157 349 -161 l299 -3 28
25 c28 23 29 28 35 139 5 103 8 119 32 156 15 22 48 53 74 68 45 26 55 28 164
28 111 0 117 -1 164 -30 36 -22 57 -45 77 -84 25 -47 28 -64 28 -148 0 -91 1
-96 29 -124 29 -29 31 -29 146 -29 66 0 126 -5 138 -11 34 -18 78 -61 88 -88
8 -19 11 -802 9 -2017 0 -161 -1 -173 -23 -205 -12 -18 -38 -44 -56 -56 l-34
-23 -1192 0 -1192 0 -33 22 c-18 13 -43 36 -54 51 l-21 28 0 1099 c0 1094 0
1099 21 1126 46 62 64 69 211 74 167 6 173 11 173 126 0 116 16 171 64 221 22
24 59 50 81 58 48 17 179 19 239 4z"/>
<path d="M780 2787 c-49 -38 -50 -47 -50 -315 l0 -254 34 -34 c32 -32 38 -34
103 -34 82 0 112 14 136 60 16 31 17 62 15 282 l-3 247 -29 30 c-28 30 -33 31
-110 31 -48 -1 -87 -6 -96 -13z m190 -46 c6 -12 10 -117 10 -270 0 -293 4
-281 -109 -281 -105 0 -101 -11 -101 282 0 153 4 257 10 269 9 16 22 19 95 19
73 0 86 -3 95 -19z"/>
<path d="M2009 2771 l-29 -29 0 -265 0 -265 35 -31 c33 -28 42 -31 106 -31 67
0 73 2 105 34 l34 34 0 262 0 262 -29 29 c-28 27 -34 29 -111 29 -77 0 -83 -2
-111 -29z m199 -23 c9 -9 12 -83 12 -269 0 -302 4 -289 -96 -289 -111 0 -104
-20 -104 283 0 191 3 266 12 275 16 16 160 16 176 0z"/>
<path d="M334 1949 c-18 -19 -19 -39 -19 -251 l0 -230 28 -24 c28 -24 30 -24
248 -24 l220 0 24 26 25 27 0 228 c0 216 -1 230 -20 249 -19 19 -33 20 -253
20 -225 0 -235 -1 -253 -21z m486 -249 l0 -235 -232 2 -233 2 -3 223 c-1 122
-1 227 2 233 2 6 86 10 235 10 l231 0 0 -235z"/>
<path d="M904 1949 c-18 -19 -19 -39 -19 -251 l0 -230 28 -24 c28 -24 29 -24
272 -24 243 0 244 0 272 24 l28 24 3 224 c3 216 2 225 -18 251 l-21 27 -263 0
c-255 0 -264 -1 -282 -21z m541 -249 l0 -231 -258 0 -258 0 0 230 c0 127 1
232 1 234 0 1 116 1 257 0 l258 -2 0 -231z"/>
<path d="M1532 1947 c-21 -22 -22 -31 -22 -244 0 -122 3 -229 6 -238 15 -39
53 -45 299 -45 l237 0 29 29 29 29 0 220 c0 207 -1 221 -21 246 l-20 26 -258
0 c-256 0 -258 0 -279 -23z m538 -247 l0 -235 -260 0 -260 0 0 235 0 235 260
0 260 0 0 -235z"/>
<path d="M2151 1944 c-20 -25 -21 -39 -21 -246 l0 -220 29 -29 29 -29 217 0
217 0 29 29 29 29 0 220 c0 207 -1 221 -21 246 l-20 26 -234 0 -234 0 -20 -26z
m489 -244 l0 -235 -235 0 -235 0 0 235 0 235 235 0 235 0 0 -235z"/>
<path d="M363 1400 c-49 -20 -54 -52 -51 -310 3 -237 3 -239 27 -264 l24 -26
222 0 c210 0 224 1 249 21 l26 20 0 257 c-1 269 -2 276 -46 300 -25 13 -419
15 -451 2z m457 -300 l0 -260 -235 0 -235 0 0 260 0 260 235 0 235 0 0 -260z"/>
<path d="M933 1400 c-49 -20 -54 -51 -51 -309 3 -238 3 -240 27 -265 l24 -26
253 0 252 0 26 31 26 31 0 241 c0 240 0 242 -24 272 l-24 30 -244 2 c-133 1
-253 -2 -265 -7z m517 -300 l0 -260 -262 0 -263 0 0 260 0 260 263 0 262 0 0
-260z"/>
<path d="M1570 1403 c-8 -3 -25 -15 -37 -26 -23 -20 -23 -24 -23 -274 l0 -254
25 -24 24 -25 250 0 249 0 26 31 26 31 0 243 c0 243 0 244 -24 272 l-24 28
-239 2 c-131 1 -245 -1 -253 -4z m500 -303 l0 -260 -260 0 -260 0 0 260 0 260
260 0 260 0 0 -260z"/>
<path d="M2184 1400 c-51 -20 -54 -36 -54 -301 l0 -246 25 -27 24 -26 220 0
c121 0 227 3 236 6 39 16 45 53 45 303 0 239 0 240 -24 268 l-24 28 -214 2
c-117 1 -223 -2 -234 -7z m456 -300 l0 -260 -235 0 -235 0 0 260 0 260 235 0
235 0 0 -260z"/>
<path d="M335 749 l-26 -32 3 -218 c3 -214 3 -218 27 -243 l24 -26 222 0 c210
0 224 1 249 21 l26 20 0 233 c0 304 28 276 -272 276 l-226 0 -27 -31z m485
-244 l0 -235 -235 0 -235 0 0 235 0 235 235 0 235 0 0 -235z"/>
<path d="M906 749 l-26 -30 3 -219 c2 -216 2 -219 26 -244 l24 -26 253 0 252
0 26 31 26 31 0 213 0 213 -26 31 -26 31 -253 0 -253 0 -26 -31z m544 -244 l0
-235 -262 0 -263 0 0 235 0 235 263 0 262 0 0 -235z"/>
<path d="M1532 757 c-21 -23 -22 -31 -22 -254 l0 -232 26 -20 c25 -20 39 -21
276 -21 l249 0 24 26 c25 27 25 27 25 251 l0 224 -25 24 -24 25 -254 0 c-252
0 -254 0 -275 -23z m538 -252 l0 -235 -260 0 -260 0 0 235 0 235 260 0 260 0
0 -235z"/>
<path d="M2151 754 c-20 -25 -21 -39 -21 -251 l0 -224 25 -24 24 -25 226 0
226 0 24 26 c25 27 25 27 25 249 0 210 -1 224 -21 249 l-20 26 -234 0 -234 0
-20 -26z m489 -249 l0 -235 -235 0 -235 0 0 235 0 235 235 0 235 0 0 -235z"/>
</g>
</svg>
